# xmcd
#
# Track frame offsets:
#	150
#	10617
#	21557
#	31990
#	40015
#	53110
#	76270
#	95100
#	106522
#	116682
#	129145
#	139882
#	150140
#	164875
#	176932
#	187362
#	197092
#	207182
#	218802
#	227907
#	239630
#	252290
#
# Disc length: 3515 seconds
#
# Revision: 0
# Processed by: cddbd v1.4PL0 Copyright (c) Steve Scherf et al.
# Submitted via: audiograbber 1.82.00
#
DISCID=340db916
DTITLE=Jimmy Witherspoon - Blue Spoon--Spoon In London
DYEAR=1900
DGENRE=
TTITLE0=I Wonder
TTITLE1=It's A Low Down Dirty Shame
TTITLE2=Nobody Knows You When You're Down And Out
TTITLE3=Back To New Orleans
TTITLE4=It's All In The Game
TTITLE5=Blues In The Morning
TTITLE6=I'll Never Be Free
TTITLE7=Once There Lived A Fool
TTITLE8=For Old Time's Sake
TTITLE9=The Time Has Come
TTITLE10=Love Me Right
TTITLE11=Make This Heart Of Mine Smile Again
TTITLE12=Oh How I Love You
TTITLE13=Free Spirits
TTITLE14=I Never Thought I'd See The Day
TTITLE15=Man Don't Cry
TTITLE16=Darlin', I Thank You
TTITLE17=A Million More Tomorrows
TTITLE18=Don't Come Back To Me For Sympathy
TTITLE19=Come On And Walk With Me
TTITLE20=Room For Everybody
TTITLE21=Two Hearts Are Better Than One
EXTD=
EXTT0=
EXTT1=
EXTT2=
EXTT3=
EXTT4=
EXTT5=
EXTT6=
EXTT7=
EXTT8=
EXTT9=
EXTT10=
EXTT11=
EXTT12=
EXTT13=
EXTT14=
EXTT15=
EXTT16=
EXTT17=
EXTT18=
EXTT19=
EXTT20=
EXTT21=
PLAYORDER=
